<svg xmlns="http://www.w3.org/2000/svg" enable-background="new 0 0 1024 1024" viewBox="0 0 1024 1024" id="makeup-brushes" fill="#586c91"><path d="M658.76 140.4l-74.85 142.99H547.4l1.51-7.5 1.52-7.5L568.31 180l-19.6-3.96-18.68 92.35-1.52 7.5-1.51 7.5h-24.62l-1.51-7.5-1.52-7.5-18.68-92.35-19.6 3.96 17.88 88.39 1.52 7.5 1.51 7.5h-37.11L370.6 140.37c-3.71-7.14-1.22-15.98 5.67-20.13l20.25-12.2c72.89-43.93 163.46-43.93 236.36 0l20.23 12.19C660.02 124.39 662.5 133.25 658.76 140.4zM808.14 476.03l21.95 5.88 5.18-19.31-21.95-5.88 3.1-11.57 12.67 3.4 5.18-19.32-12.68-3.4 5.69-21.22-19.32-5.17-5.69 21.22-12.68-3.4-5.17 19.32 12.68 3.4-3.1 11.56-21.96-5.89-5.17 19.32 21.95 5.88-3.09 11.57-30.16-8.08-5.17 19.32 30.15 8.08-3.1 11.56-21.96-5.88-5.17 19.31 21.95 5.89-3.09 11.56-12.69-3.4-5.17 19.32 12.68 3.4-37.51 139.97-31.88-8.54c-5.94-1.59-12.08 1.95-13.67 7.9l-53.3 198.91c-1.78 6.65-.87 13.6 2.57 19.57 3.45 5.96 9.01 10.23 15.66 12.01l54.83 14.69c2.23.6 4.46.89 6.67.89 11.38-.01 21.83-7.61 24.91-19.12l53.3-198.92c1.59-5.94-1.95-12.08-7.89-13.67l-31.88-8.54 37.51-139.98 12.67 3.4 5.18-19.32-12.68-3.4 3.1-11.55 21.95 5.88 5.18-19.32-21.95-5.88 3.1-11.57 30.14 8.08 5.18-19.32-30.15-8.08L808.14 476.03zM686.52 889.39l-19.32-5.18 35.46-132.3 19.31 5.18L686.52 889.39zM910.78 221.84c0 2.52-1.7 4.72-4.14 5.35l-22.02 5.71c-19.07 4.94-34 19.87-38.94 38.94l-5.71 22.02c-.64 2.44-2.83 4.14-5.35 4.14s-4.72-1.71-5.35-4.14l-5.7-22.02c-4.95-19.07-19.87-34-38.95-38.94l-22.02-5.71c-2.44-.63-4.14-2.83-4.14-5.35s1.71-4.72 4.14-5.35l22.02-5.71c19.08-4.94 34-19.86 38.95-38.94l5.7-22.02c.63-2.43 2.83-4.13 5.35-4.14 1.26 0 2.44.42 3.38 1.16.94.72 1.65 1.76 1.97 2.98l5.71 22.02c4.94 19.08 19.87 34 38.94 38.94l22.02 5.71C909.08 217.12 910.78 219.32 910.78 221.84zM181.46 804.86c0 2.37-1.6 4.45-3.9 5.04l-8.63 2.24c-6.4 1.66-11.41 6.67-13.07 13.08l-2.24 8.62c-.59 2.29-2.66 3.9-5.03 3.9h-.01c-2.37 0-4.44-1.6-5.04-3.89v-.01l-2.24-8.62c-1.66-6.41-6.67-11.42-13.07-13.08l-8.63-2.24c-2.29-.59-3.9-2.66-3.9-5.04 0-2.37 1.61-4.44 3.9-5.04l8.63-2.23c6.4-1.66 11.41-6.67 13.07-13.08l2.24-8.63c.6-2.3 2.67-3.9 5.04-3.9h.01c2.37.01 4.44 1.62 5.03 3.92l2.24 8.61c1.66 6.41 6.67 11.42 13.07 13.08l8.63 2.23C179.86 800.42 181.46 802.49 181.46 804.86zM357.31 944.2l-11.27 3.02c-2.05.55-4.12.81-6.15.81-10.06.01-19.28-6.46-22.44-16.52l-104.7-333.49c-3.75-11.95-7.22-24.04-10.37-36.22l7.23-1.94 7.25-1.94 57.67-15.45 7.26-1.95 7.23-1.93c3.36 12.13 6.4 24.33 9.13 36.55l76.07 341.16C376.98 928.66 369.55 940.92 357.31 944.2zM245.42 416.5l-65.67 17.6-20.98-121.87-.23.06-43.16-54.36c-3.1-3.91-2.85-9.59.6-13.21 23.05-24.18 57.28-33.35 89.32-23.93 4.8 1.4 7.86 6.19 7.13 11.14l-10.13 68.19L245.42 416.5zM571.67 547.66v31.76c0 25.45-.92 51.22-2.73 76.62l-19.51 272.54c-.78 10.91-9.95 19.45-20.89 19.45h-27.69c-10.93 0-20.1-8.55-20.88-19.45l-19.51-272.54c-1.81-25.39-2.74-51.17-2.74-76.62v-31.76H571.67zM586.87 308.39v28.25c0 50.6-3.25 101.72-9.64 151.92l-3.71 29.1H455.8l-3.46-26.14c-3.04-22.89-5.41-45.96-7.12-69.09h69.96v-20h-71.27c-1.32-22.95-1.99-45.92-1.99-68.79v-25.25H586.87zM280.48 509.82l-7.25 1.94-7.26 1.94-56.07 15.02-7.27 1.95-7.23 1.94c-2.72-12.39-5.12-24.85-7.19-37.31l-4.51-27.09 74.69-20.01 9.65 25.71C272.47 485.75 276.63 497.73 280.48 509.82z"></path></svg>