<svg xmlns="http://www.w3.org/2000/svg" viewBox="0 0 64 64" id="serum" fill="#586c91"><path d="m44.91 25.99-3.28-2.34A4 4 0 0 0 40 16h-.43a3.184 3.184 0 0 1-2.86-4.23c2.49-5.65.22-9.76-4.71-9.76-4.9-.01-7.22 4.11-4.73 9.71A3.174 3.174 0 0 1 24.43 16H24a4 4 0 0 0-1.63 7.65l-3.28 2.34A5.018 5.018 0 0 0 17 30.06V57a5 5 0 0 0 5 5h20a5 5 0 0 0 5-5V30.06a5.018 5.018 0 0 0-2.09-4.07ZM45 57a3.009 3.009 0 0 1-3 3H22a3.009 3.009 0 0 1-3-3v-1h26ZM27.722 44.722C27.722 42.36 32 38 32 38s4.278 4.36 4.278 6.722a4.278 4.278 0 1 1-8.556 0ZM45 32H19v-1.94a2.991 2.991 0 0 1 1.26-2.44L25.32 24h13.36l5.06 3.62A2.991 2.991 0 0 1 45 30.06Z" data-name="Glyph"></path></svg>