<svg xmlns="http://www.w3.org/2000/svg" data-name="Layer 1" viewBox="0 0 512 512" id="mascara" fill="#586c91"><polygon points="322.741 477 405.047 477 415.003 298 312.785 298 322.741 477"></polygon><path d="M333,113h24v18H338a7,7,0,0,0,0,14h19v19H342a7,7,0,0,0,0,14h15V289h14V178h16a7,7,0,0,0,0-14H371V145h20a7,7,0,0,0,0-14H371V113h25a7,7,0,0,0,0-14H371V78h20a7,7,0,0,0,0-14H371V51h16a7,7,0,0,0,0-14H368.958a6.985,6.985,0,0,0-9.055,0H342a7,7,0,0,0,0,14h15V64H338a7,7,0,0,0,0,14h19V99H333a7,7,0,0,0,0,14Z"></path><polygon points="107.122 477 189.09 477 199.399 138 96.813 138 107.122 477"></polygon><rect width="80" height="15" x="108" y="85"></rect><rect width="80" height="10" x="108" y="114"></rect></svg>