<svg xmlns="http://www.w3.org/2000/svg" data-name="Layer 1" viewBox="0 0 96 96" id="hair-salon" fill="#586c91"><path d="M74.546 12.123h15.521A1.023 1.023 0 0 0 91 11.03c0-1.47-1.314-2.89-3.38-3.555C81.227 5.412 73.698 4.41 67.523 5.36c-3.183.49-5.39 2.233-5.39 9.283v66.712c0 7.05 2.207 8.794 5.39 9.283 6.175.95 13.704-.05 20.099-2.114C89.686 87.86 91 86.44 91 84.97a1.023 1.023 0 0 0-.932-1.093H74.545a1.87 1.87 0 0 1-1.673-1.997v-.05a1.81 1.81 0 0 1 1.622-1.926 91.21 91.21 0 0 0 14.47-1.286c1.13-.24 2.035-.713 2.035-.963s-.905-.723-2.035-.963a91.261 91.261 0 0 0-14.42-1.285 1.87 1.87 0 0 1-1.672-1.997v-.05a1.81 1.81 0 0 1 1.622-1.926 91.21 91.21 0 0 0 14.47-1.286c1.13-.24 2.035-.713 2.035-.963s-.905-.723-2.035-.963a91.231 91.231 0 0 0-14.42-1.285 1.87 1.87 0 0 1-1.672-1.997v-.05a1.81 1.81 0 0 1 1.622-1.926 91.256 91.256 0 0 0 14.47-1.286c1.13-.24 2.035-.713 2.035-.963s-.905-.723-2.035-.963a91.23 91.23 0 0 0-14.42-1.285 1.87 1.87 0 0 1-1.672-1.997v-.05a1.81 1.81 0 0 1 1.622-1.926 91.254 91.254 0 0 0 14.47-1.286c1.13-.24 2.035-.713 2.035-.963s-.905-.723-2.035-.963a91.211 91.211 0 0 0-14.42-1.285 2.028 2.028 0 0 1 0-3.994 91.243 91.243 0 0 0 14.42-1.285c1.13-.24 2.035-.713 2.035-.963s-.905-.723-2.035-.963a91.254 91.254 0 0 0-14.47-1.286 1.81 1.81 0 0 1-1.622-1.927v-.05a1.87 1.87 0 0 1 1.673-1.996 91.247 91.247 0 0 0 14.419-1.285c1.13-.24 2.035-.713 2.035-.963s-.905-.723-2.035-.963a91.25 91.25 0 0 0-14.47-1.286 1.81 1.81 0 0 1-1.622-1.927v-.05a1.87 1.87 0 0 1 1.673-1.996 91.245 91.245 0 0 0 14.419-1.285c1.13-.24 2.035-.713 2.035-.963s-.905-.723-2.035-.963a91.221 91.221 0 0 0-14.47-1.286 1.81 1.81 0 0 1-1.622-1.927v-.05a1.87 1.87 0 0 1 1.673-1.996 91.252 91.252 0 0 0 14.419-1.285c1.13-.24 2.035-.713 2.035-.963s-.905-.723-2.035-.963a91.23 91.23 0 0 0-14.47-1.286 1.81 1.81 0 0 1-1.622-1.927v-.05a1.87 1.87 0 0 1 1.673-1.996zm-34.79 51.76a6.086 6.086 0 0 0-2.29 1.144l-4.46-15.394.005-.01a10.157 10.157 0 0 0 1.1-3.378C35.188 38.523 39.228 8.38 37.05 5l-8.488 29.298L20.073 5c-2.176 3.38 1.864 33.523 2.942 41.245a10.158 10.158 0 0 0 1.1 3.379l.005.009-4.46 15.394a6.085 6.085 0 0 0-2.29-1.143C12.226 62.53 6.858 67.456 5.38 74.887s1.49 14.552 6.633 15.906 8.545-4.09 10.024-11.52a24.002 24.002 0 0 0 .248-9.553l6.278-11.762L34.84 69.72a24.002 24.002 0 0 0 .248 9.552c1.479 7.43 4.88 12.875 10.023 11.52s8.113-8.475 6.634-15.905-6.847-12.357-11.99-11.003zm-22.103 14.61a19.354 19.354 0 0 1-2.766 7.368c-1.214 1.636-2.24 1.629-3.085 1.406-3.093-.814-4.813-5.99-3.756-11.303s4.564-9.114 7.657-8.3c.845.223 1.772.73 2.246 2.81a20.553 20.553 0 0 1-.296 8.02zm10.79-30.949a2.037 2.037 0 1 1 2.037-2.037 2.037 2.037 0 0 1-2.037 2.037zm16.88 39.723c-.844.223-1.87.23-3.084-1.406a19.354 19.354 0 0 1-2.766-7.368 20.551 20.551 0 0 1-.297-8.019c.475-2.08 1.402-2.587 2.246-2.81 3.093-.814 6.6 2.987 7.657 8.3s-.662 10.49-3.755 11.303z"></path></svg>