<svg xmlns="http://www.w3.org/2000/svg" enable-background="new 0 0 70 70" viewBox="0 0 70 70" id="spray" fill="#586c91"><path d="M43.7 16.6c.1 0 .2 0 .2 0L55 13.9c.5-.1.9-.7.7-1.2-.1-.5-.7-.9-1.2-.7l-11.1 2.6c-.5.1-.9.7-.7 1.2C42.8 16.2 43.2 16.6 43.7 16.6zM55 20.8l-11.1-2.6c-.5-.1-1.1.2-1.2.7-.1.5.2 1.1.7 1.2l11.1 2.6c.1 0 .2 0 .2 0 .5 0 .9-.3 1-.8C55.9 21.5 55.6 20.9 55 20.8z"></path><path d="M40.6,21.9v-7.8c0-1.7-1.4-3.1-3.1-3.1h-5.7c-1.7,0-3.1,1.4-3.1,3.1v7.8c-2.8,0.8-5.5,2.3-7.8,4.4
		c-4.3,3.9-6.8,9.4-6.8,15.2c0,6.5,3,12.5,8.3,16.4c0.9,0.7,2,1,3.1,1h18.2c1.1,0,2.2-0.4,3.1-1c5.3-3.9,8.2-10,8.2-16.4
		c0-0.7,0-1.3-0.1-2C54.3,31.2,48.4,24.3,40.6,21.9z M33.8,16.4c0-0.1,0.1-0.2,0.2-0.3c0.2-0.2,0.6-0.3,0.9-0.3c0.1,0,0.1,0,0.2,0
		c0.1,0,0.1,0.1,0.2,0.1c0,0,0.1,0.1,0.2,0.1c0.1,0.1,0.2,0.2,0.2,0.3c0.1,0.1,0.1,0.3,0.1,0.4c0,0.1,0,0.3-0.1,0.4
		c0,0.1-0.1,0.2-0.2,0.3c-0.2,0.2-0.4,0.3-0.7,0.3s-0.5-0.1-0.7-0.3c-0.1-0.1-0.2-0.2-0.2-0.3s-0.1-0.3-0.1-0.4
		C33.7,16.7,33.7,16.6,33.8,16.4z M44.4,54.8c-0.2,0.1-0.4,0.2-0.6,0.2H25.5c-0.2,0-0.4-0.1-0.6-0.2c-4.1-3-6.6-7.7-6.7-12.9
		c0-0.3,0.2-0.6,0.4-0.8c0.3-0.2,0.6-0.3,0.9-0.1c3.6,1.3,8.1,0.7,13.3,0.1c5.3-0.6,11.3-1.3,17.5-0.1c0.5,0.1,0.8,0.5,0.8,1
		C51,47.1,48.6,51.8,44.4,54.8z"></path></svg>